<?xml version="1.0" encoding="UTF-8"?>
<svg id="Layer_1" xmlns="http://www.w3.org/2000/svg" xmlns:xlink="http://www.w3.org/1999/xlink" version="1.1" viewBox="0 0 1202.94 856.46">
  <!-- Generator: Adobe Illustrator 30.1.0, SVG Export Plug-In . SVG Version: 2.1.1 Build 136)  -->
  <defs>
    <style>
      .st0 {
        fill: url(#linear-gradient2);
      }

      .st1 {
        fill: url(#linear-gradient1);
      }

      .st2 {
        fill: url(#linear-gradient);
      }

      .st3 {
        fill: #1e1e1c;
      }

      .st4 {
        fill: #b2b2b2;
      }
    </style>
    <linearGradient id="linear-gradient" x1="161.76" y1="652.15" x2="407.31" y2="650.06" gradientTransform="translate(0 -222)" gradientUnits="userSpaceOnUse">
      <stop offset=".04" stop-color="#d26f13"/>
      <stop offset=".23" stop-color="#cf6613"/>
      <stop offset=".52" stop-color="#c75014"/>
      <stop offset=".88" stop-color="#bb2d17"/>
      <stop offset="1" stop-color="#b72018"/>
    </linearGradient>
    <linearGradient id="linear-gradient1" x1="161.63" y1="651.41" x2="407.37" y2="649.32" gradientTransform="translate(0 -222)" gradientUnits="userSpaceOnUse">
      <stop offset=".04" stop-color="#d26f13"/>
      <stop offset=".23" stop-color="#cf6613"/>
      <stop offset=".52" stop-color="#c75014"/>
      <stop offset=".88" stop-color="#bb2d17"/>
      <stop offset="1" stop-color="#b72018"/>
    </linearGradient>
    <linearGradient id="linear-gradient2" x1="757.05" y1="674.23" x2="787.54" y2="674.23" gradientTransform="translate(0 -222)" gradientUnits="userSpaceOnUse">
      <stop offset=".04" stop-color="#d26f13"/>
      <stop offset=".23" stop-color="#cf6613"/>
      <stop offset=".52" stop-color="#c75014"/>
      <stop offset=".88" stop-color="#bb2d17"/>
      <stop offset="1" stop-color="#b72018"/>
    </linearGradient>
  </defs>
  <g>
    <path class="st4" d="M502.02,387.89h-24.96l-11.61,23.02c-2.05,4.11-4.21,6.05-11.3,6.05-5.03,0-6.58-1.23-6.58-2.93,0-.94.41-2,1.03-3.11l11.61-23.02h-24.96l-12.64,25.19c-1.13,2.23-1.64,4.23-1.64,5.99,0,7.52,10.07,10.8,27.94,10.8,19.31,0,33.59-3.29,40.37-16.68l12.74-25.3h0Z"/>
    <polygon class="st4" points="531.91 387.89 506.95 387.89 486.3 428.99 537.25 428.99 543.62 416.37 517.63 416.37 531.91 387.89"/>
    <path class="st4" d="M641.64,387.89l-29.38,29.14c-7.97.09-18.86.09-24.76-.02-8.32-.15-12.94-1.47-12.94-5.05,0-1.64.72-3.46,1.44-4.87,3.18-5.81,9.45-7.22,20.75-7.22,5.14,0,10.61.44,14.89,1.01l6.19-12.33c-5.58-.8-13.57-1.53-20.66-1.53-27.84,0-40.99,4.99-47.97,20.49-1.54,3.41-2.39,7.01-2.05,9.51,1.1,8.24,8.97,12.27,31.43,11.9,5.39-.09,46.44.07,46.44.07l5.96-6.17h23.32l-.21,6.17h24.55l-.21-41.1h-36.79ZM654.28,410.85h-11.71l11.71-12.27h.21l-.21,12.27Z"/>
    <polygon class="st4" points="749.3 387.89 739.34 407.86 739.03 407.86 727.93 387.89 703.17 387.89 682.53 428.99 706.46 428.99 716.73 408.39 717.04 408.39 728.86 428.99 752.48 428.99 773.13 387.89 749.3 387.89"/>
    <polygon class="st4" points="778.47 387.89 757.82 428.99 782.79 428.99 803.43 387.89 778.47 387.89"/>
    <path class="st4" d="M842.47,404.22l-2.67-.53c-10.89-2.17-11.92-2.05-11.92-3.35,0-.59.82-1.76,7.19-1.76,7.6,0,15,.59,20.13,1.35l9.04-10.27c-6.47-1.47-16.23-2.64-27.33-2.64-18.9,0-35.34,3.64-35.34,17.03,0,3.7,4.21,7.69,15.2,9.51l2.16.35c5.55.88,6.98,1.35,6.98,2.64s-1.85,1.76-8.53,1.76c-9.86,0-16.23-1.23-19.21-2l-9.25,10.69c5.03,1.41,14.28,2.88,29.28,2.88,21.98,0,36.67-5.29,36.67-17.2,0-3.05-3.9-6.75-12.43-8.45h.03Z"/>
    <polygon class="st4" points="872.57 387.89 851.92 428.99 876.88 428.99 897.53 387.89 872.57 387.89"/>
    <polygon class="st4" points="948.99 387.89 939.03 407.86 938.72 407.86 927.63 387.89 902.87 387.89 882.22 428.99 906.16 428.99 916.43 408.39 916.74 408.39 928.55 428.99 952.18 428.99 972.83 387.89 948.99 387.89"/>
    <path class="st4" d="M1003.23,414.08h11.09l-1.54,3.05c-1.95.12-3.9.29-6.37.29-9.96,0-13.35-1.88-13.35-5.46,0-1.64.72-3.46,1.44-4.87,3.18-5.81,10.27-7.57,21.78-7.57,9.55,0,15,.41,19.42,1.06l9.76-11.1c-4.42-1.06-17.57-2.47-29.17-2.47-27.84,0-40.99,5.11-47.97,20.37-1.54,3.41-2.05,7.11-2.05,9.34,0,8.1,10.89,13.15,33.08,13.15,12.94,0,24.55-1.94,30.2-3.29l11.61-23.19h-32.46l-5.44,10.69h-.03Z"/>
    <polygon class="st4" points="404.16 388.04 393.22 409.86 372.96 388.04 347.12 388.04 388.14 429.14 395.71 429.14 395.71 428.93 395.87 429.14 409.38 429.14 430.01 388.04 404.16 388.04"/>
  </g>
  <g>
    <polygon class="st2" points="327.22 469.44 336.16 469.44 376.36 429.28 335.15 387.98 326.2 387.98 367.48 429.23 327.22 469.44"/>
    <polygon class="st1" points="157.49 388.1 157.53 469.44 316.98 469.44 357.2 429.23 315.96 387.98 157.49 388.1"/>
  </g>
  <g>
    <path class="st4" d="M381.73,463.14l-.37-4.5h-13.9l-4.52,4.5h-8.4l21.47-21.44h12.79l1.71,21.44h-8.78ZM380.61,446.05h-.59l-8.23,8.24h9.36l-.53-8.24h0Z"/>
    <path class="st4" d="M416.33,463.14l-8.23-14.15h-.16l-7.06,14.15h-8.55l10.75-21.44h9.25l7.81,13.75h.16l6.9-13.75h8.55l-10.75,21.44h-8.67Z"/>
    <path class="st4" d="M439.81,463.14l3.9-7.84-6.2-13.6h9.41l3.53,8.45,11.6-8.45h10.37l-19.84,13.6-3.9,7.84h-8.88.01Z"/>
    <path class="st4" d="M502.5,462.16c-2.25.7-7.06,1.35-11.34,1.35-9.73,0-15.03-2.2-15.03-6.49,0-1.26.21-3.06,1.12-4.93,3.74-7.87,10.64-10.75,23.42-10.75,4.76,0,9.95.67,11.71,1.1l-3.64,4.1c-2.19-.37-5.4-.64-8.18-.64-7.01,0-11.5,1.56-13.9,6.19-.59,1.16-.91,2.33-.91,3.28,0,2.64,3.21,3.58,8.29,3.58,3.74,0,6.1-.31,9.09-.86l-.64,4.07h.01Z"/>
    <path class="st4" d="M523.13,463.51c-8.93,0-15.29-2.02-15.29-6.74,0-1.32.32-2.94,1.12-4.72,3.37-7.23,10.37-10.72,23.21-10.72,8.93,0,15.29,2.02,15.29,6.74,0,1.32-.37,2.97-1.18,4.75-3.32,7.23-10.37,10.69-23.15,10.69h0ZM537.83,449.18c0-2.11-2.19-3.52-7.06-3.52-6.52,0-10.27,2.2-12.41,6.65-.64,1.29-.96,2.45-.96,3.37,0,2.11,2.25,3.52,7.11,3.52,6.52,0,10.27-2.14,12.41-6.62.64-1.26.91-2.51.91-3.4h0Z"/>
    <path class="st4" d="M567.85,463.14l-8.23-14.15h-.16l-7.06,14.15h-8.55l10.75-21.44h9.25l7.81,13.75h.16l6.9-13.75h8.55l-10.75,21.44h-8.67Z"/>
    <path class="st4" d="M590.53,463.14l-1.23-21.44h8.72l.8,15.89h.21l16.26-15.89h9.36l-22.62,21.44h-11.5Z"/>
    <path class="st4" d="M615.98,463.14l10.75-21.44h24.7l-2.19,4.32h-15.88l-2.03,4.17h12.62l-2.09,4.04h-12.57l-2.3,4.59h15.88l-2.19,4.32h-24.7,0Z"/>
    <path class="st4" d="M654.97,463.14l3.9-7.84-6.2-13.6h9.41l3.53,8.45,11.6-8.45h10.37l-19.84,13.6-3.9,7.84h-8.88.01Z"/>
    <path class="st4" d="M694.7,463.51c-8.93,0-15.29-2.02-15.29-6.74,0-1.32.32-2.94,1.12-4.72,3.37-7.23,10.37-10.72,23.21-10.72,8.93,0,15.29,2.02,15.29,6.74,0,1.32-.37,2.97-1.18,4.75-3.32,7.23-10.37,10.69-23.15,10.69h0ZM709.41,449.18c0-2.11-2.19-3.52-7.06-3.52-6.52,0-10.27,2.2-12.41,6.65-.64,1.29-.96,2.45-.96,3.37,0,2.11,2.25,3.52,7.11,3.52,6.52,0,10.27-2.14,12.41-6.62.64-1.26.91-2.51.91-3.4h0Z"/>
    <path class="st4" d="M736.26,463.14l-4.49-7.41h-3.8l-3.69,7.41h-8.88l10.75-21.44h14.44c7.49,0,10.91,2.05,10.91,4.93,0,3.46-2.89,7.5-10.8,8.27l5.29,8.24h-9.73ZM734.6,451.69c4.92,0,7.33-1.41,7.33-3.71,0-1.16-1.34-1.93-4.54-1.93h-4.76l-2.83,5.64h4.81-.01Z"/>
    <path class="st4" d="M814.12,462.97l-.37-4.5h-13.9l-4.86,4.5h-9.3l23.37-21.44h12.14l1.71,21.44h-8.79ZM813,445.88h-.11l-8.72,8.24h9.36l-.53-8.24Z"/>
    <path class="st4" d="M849.66,463.14l-8.23-14.15h-.16l-7.06,14.15h-8.55l10.75-21.44h9.25l7.81,13.75h.16l6.9-13.75h8.55l-10.75,21.44h-8.67Z"/>
    <path class="st4" d="M873.14,463.14l3.9-7.84-6.2-13.6h9.41l3.53,8.45,11.6-8.45h10.37l-19.84,13.6-3.9,7.84h-8.88.01Z"/>
    <path class="st4" d="M907.58,463.14l10.75-21.44h15.45c7.33,0,10.32,1.93,10.27,4.32-.05,3.55-4.44,5.36-9.68,6v.09c4.06.27,5.78,2.02,5.78,3.71,0,3.8-4.6,7.32-16.84,7.32h-15.73ZM923.78,459.13c4.76,0,6.95-1.32,7.01-3.19,0-1.32-1.44-1.99-4.87-1.99h-4.87l-2.62,5.18h5.35ZM927.79,450.46c4.44,0,6.74-1.47,6.79-3.03,0-1.07-.96-1.71-4.28-1.71h-5.13l-2.41,4.75h5.03Z"/>
    <path class="st4" d="M940.15,463.14l10.75-21.44h24.7l-2.19,4.32h-15.88l-2.03,4.17h12.62l-2.09,4.04h-12.57l-2.3,4.59h15.88l-2.19,4.32h-24.7,0Z"/>
    <path class="st4" d="M967.9,463.14l10.75-21.44h8.88l-8.5,16.94h14.54l-2.3,4.5h-23.37Z"/>
    <path class="st4" d="M995.28,463.14l8.5-16.94h-10.64l2.3-4.5h30.05l-2.25,4.5h-10.64l-8.45,16.94h-8.88.01Z"/>
  </g>
  <polygon class="st0" points="787.54 441.57 766.23 462.89 757.05 462.89 778.37 441.57 787.54 441.57"/>
  <polygon class="st3" points="312.78 412.87 312.78 397.65 266.79 397.65 236.65 397.65 236.21 397.65 236.21 431.77 236.18 431.77 199.57 397.65 167.43 397.65 167.43 459.2 197.57 459.2 197.57 423.94 198.04 423.94 236.18 459.2 236.21 459.2 266.79 459.2 312.78 459.2 312.78 443.99 267.25 443.99 267.25 435.11 302.63 435.11 302.63 421.13 267.25 421.13 267.25 412.87 312.78 412.87"/>
</svg>